<?xml version="1.0" encoding="UTF-8" standalone="no"?>
<!DOCTYPE svg PUBLIC "-//W3C//DTD SVG 1.1//EN"
 "http://www.w3.org/Graphics/SVG/1.1/DTD/svg11.dtd">
<!-- Generated by graphviz version 2.47.3 (20210619.1520)
 -->
<!-- Title: dependencies Pages: 1 -->
<svg width="613pt" height="174pt"
 viewBox="0.00 0.00 613.00 173.80" xmlns="http://www.w3.org/2000/svg" xmlns:xlink="http://www.w3.org/1999/xlink">
<g id="graph0" class="graph" transform="scale(1 1) rotate(0) translate(4 169.8)">
<title>dependencies</title>
<polygon fill="white" stroke="transparent" points="-4,4 -4,-169.8 609,-169.8 609,4 -4,4"/>
<text text-anchor="middle" x="302.5" y="-8.2" font-family="sans-serif" font-size="14.00">dependencies</text>
<g id="clust1" class="cluster">
<title>cluster_AppModule</title>
<polygon fill="none" stroke="black" stroke-dasharray="1,5" points="8,-32.8 8,-157.8 597,-157.8 597,-32.8 8,-32.8"/>
</g>
<g id="clust3" class="cluster">
<title>cluster_AppModule_imports</title>
<polygon fill="none" stroke="black" points="365,-40.8 365,-92.8 589,-92.8 589,-40.8 365,-40.8"/>
</g>
<g id="clust6" class="cluster">
<title>cluster_AppModule_providers</title>
<polygon fill="none" stroke="black" points="16,-40.8 16,-92.8 357,-92.8 357,-40.8 16,-40.8"/>
</g>
<!-- NamesModule -->
<g id="node1" class="node">
<title>NamesModule</title>
<polygon fill="#8dd3c7" stroke="black" points="581.42,-84.8 578.42,-88.8 557.42,-88.8 554.42,-84.8 482.58,-84.8 482.58,-48.8 581.42,-48.8 581.42,-84.8"/>
<text text-anchor="middle" x="532" y="-62.6" font-family="Times,serif" font-size="14.00">NamesModule</text>
</g>
<!-- AppModule -->
<g id="node3" class="node">
<title>AppModule</title>
<polygon fill="#8dd3c7" stroke="black" points="396.66,-149.8 393.66,-153.8 372.66,-153.8 369.66,-149.8 313.34,-149.8 313.34,-113.8 396.66,-113.8 396.66,-149.8"/>
<text text-anchor="middle" x="355" y="-127.6" font-family="Times,serif" font-size="14.00">AppModule</text>
</g>
<!-- NamesModule&#45;&gt;AppModule -->
<g id="edge1" class="edge">
<title>NamesModule&#45;&gt;AppModule</title>
<path fill="none" stroke="black" d="M532,-84.91C532,-104.14 532,-131.8 532,-131.8 532,-131.8 406.95,-131.8 406.95,-131.8"/>
<polygon fill="black" stroke="black" points="406.95,-128.3 396.95,-131.8 406.95,-135.3 406.95,-128.3"/>
</g>
<!-- UsersModule -->
<g id="node2" class="node">
<title>UsersModule</title>
<polygon fill="#8dd3c7" stroke="black" points="464.92,-84.8 461.92,-88.8 440.92,-88.8 437.92,-84.8 373.08,-84.8 373.08,-48.8 464.92,-48.8 464.92,-84.8"/>
<text text-anchor="middle" x="419" y="-62.6" font-family="Times,serif" font-size="14.00">UsersModule</text>
</g>
<!-- UsersModule&#45;&gt;AppModule -->
<g id="edge2" class="edge">
<title>UsersModule&#45;&gt;AppModule</title>
<path fill="none" stroke="black" d="M385.06,-84.91C385.06,-84.91 385.06,-103.79 385.06,-103.79"/>
<polygon fill="black" stroke="black" points="381.56,-103.79 385.06,-113.79 388.56,-103.79 381.56,-103.79"/>
</g>
<!-- AppService -->
<g id="node4" class="node">
<title>AppService</title>
<ellipse fill="#fdb462" stroke="black" cx="292" cy="-66.8" rx="56.74" ry="18"/>
<text text-anchor="middle" x="292" y="-62.6" font-family="Times,serif" font-size="14.00">AppService</text>
</g>
<!-- AppService&#45;&gt;AppModule -->
<g id="edge3" class="edge">
<title>AppService&#45;&gt;AppModule</title>
<path fill="none" stroke="black" d="M330.9,-79.95C330.9,-79.95 330.9,-103.49 330.9,-103.49"/>
<polygon fill="black" stroke="black" points="327.4,-103.49 330.9,-113.49 334.4,-103.49 327.4,-103.49"/>
</g>
<!-- NameInsertedListener -->
<g id="node5" class="node">
<title>NameInsertedListener</title>
<ellipse fill="#fdb462" stroke="black" cx="121" cy="-66.8" rx="96.66" ry="18"/>
<text text-anchor="middle" x="121" y="-62.6" font-family="Times,serif" font-size="14.00">NameInsertedListener</text>
</g>
<!-- NameInsertedListener&#45;&gt;AppModule -->
<g id="edge4" class="edge">
<title>NameInsertedListener&#45;&gt;AppModule</title>
<path fill="none" stroke="black" d="M121,-84.91C121,-104.14 121,-131.8 121,-131.8 121,-131.8 303.17,-131.8 303.17,-131.8"/>
<polygon fill="black" stroke="black" points="303.17,-135.3 313.17,-131.8 303.17,-128.3 303.17,-135.3"/>
</g>
</g>
</svg>
