<?xml version="1.0" encoding="UTF-8" standalone="no"?>
<!DOCTYPE svg PUBLIC "-//W3C//DTD SVG 1.1//EN"
 "http://www.w3.org/Graphics/SVG/1.1/DTD/svg11.dtd">
<!-- Generated by graphviz version 2.47.3 (20210619.1520)
 -->
<!-- Title: dependencies Pages: 1 -->
<svg width="657pt" height="250pt"
 viewBox="0.00 0.00 657.00 249.80" xmlns="http://www.w3.org/2000/svg" xmlns:xlink="http://www.w3.org/1999/xlink">
<g id="graph0" class="graph" transform="scale(1 1) rotate(0) translate(4 245.8)">
<title>dependencies</title>
<polygon fill="white" stroke="transparent" points="-4,4 -4,-245.8 653,-245.8 653,4 -4,4"/>
<text text-anchor="middle" x="324.5" y="-8.2" font-family="sans-serif" font-size="14.00">dependencies</text>
<g id="clust1" class="cluster">
<title>cluster_AppModule</title>
<polygon fill="none" stroke="black" stroke-dasharray="1,5" points="8,-108.8 8,-233.8 597,-233.8 597,-108.8 8,-108.8"/>
</g>
<g id="clust3" class="cluster">
<title>cluster_AppModule_imports</title>
<polygon fill="none" stroke="black" points="365,-116.8 365,-168.8 589,-168.8 589,-116.8 365,-116.8"/>
</g>
<g id="clust6" class="cluster">
<title>cluster_AppModule_providers</title>
<polygon fill="none" stroke="black" points="16,-116.8 16,-168.8 357,-168.8 357,-116.8 16,-116.8"/>
</g>
<g id="clust7" class="cluster">
<title>cluster_NamesModule</title>
<polygon fill="none" stroke="black" stroke-dasharray="1,5" points="311,-32.8 311,-100.8 477,-100.8 477,-32.8 311,-32.8"/>
</g>
<g id="clust12" class="cluster">
<title>cluster_NamesModule_providers</title>
<polygon fill="none" stroke="black" points="319,-40.8 319,-92.8 469,-92.8 469,-40.8 319,-40.8"/>
</g>
<g id="clust13" class="cluster">
<title>cluster_UsersModule</title>
<polygon fill="none" stroke="black" stroke-dasharray="1,5" points="485,-32.8 485,-100.8 641,-100.8 641,-32.8 485,-32.8"/>
</g>
<g id="clust18" class="cluster">
<title>cluster_UsersModule_providers</title>
<polygon fill="none" stroke="black" points="493,-40.8 493,-92.8 633,-92.8 633,-40.8 493,-40.8"/>
</g>
<!-- NamesModule -->
<g id="node1" class="node">
<title>NamesModule</title>
<polygon fill="#8dd3c7" stroke="black" points="471.42,-160.8 468.42,-164.8 447.42,-164.8 444.42,-160.8 372.58,-160.8 372.58,-124.8 471.42,-124.8 471.42,-160.8"/>
<text text-anchor="middle" x="422" y="-138.6" font-family="Times,serif" font-size="14.00">NamesModule</text>
</g>
<!-- AppModule -->
<g id="node3" class="node">
<title>AppModule</title>
<polygon fill="#8dd3c7" stroke="black" points="398.66,-225.8 395.66,-229.8 374.66,-229.8 371.66,-225.8 315.34,-225.8 315.34,-189.8 398.66,-189.8 398.66,-225.8"/>
<text text-anchor="middle" x="357" y="-203.6" font-family="Times,serif" font-size="14.00">AppModule</text>
</g>
<!-- NamesModule&#45;&gt;AppModule -->
<g id="edge1" class="edge">
<title>NamesModule&#45;&gt;AppModule</title>
<path fill="none" stroke="black" d="M385.81,-160.91C385.81,-160.91 385.81,-179.79 385.81,-179.79"/>
<polygon fill="black" stroke="black" points="382.31,-179.79 385.81,-189.79 389.31,-179.79 382.31,-179.79"/>
</g>
<!-- UsersModule -->
<g id="node2" class="node">
<title>UsersModule</title>
<polygon fill="#8dd3c7" stroke="black" points="580.92,-160.8 577.92,-164.8 556.92,-164.8 553.92,-160.8 489.08,-160.8 489.08,-124.8 580.92,-124.8 580.92,-160.8"/>
<text text-anchor="middle" x="535" y="-138.6" font-family="Times,serif" font-size="14.00">UsersModule</text>
</g>
<!-- UsersModule&#45;&gt;AppModule -->
<g id="edge2" class="edge">
<title>UsersModule&#45;&gt;AppModule</title>
<path fill="none" stroke="black" d="M535,-160.91C535,-180.14 535,-207.8 535,-207.8 535,-207.8 408.73,-207.8 408.73,-207.8"/>
<polygon fill="black" stroke="black" points="408.73,-204.3 398.73,-207.8 408.73,-211.3 408.73,-204.3"/>
</g>
<!-- AppService -->
<g id="node4" class="node">
<title>AppService</title>
<ellipse fill="#fdb462" stroke="black" cx="292" cy="-142.8" rx="56.74" ry="18"/>
<text text-anchor="middle" x="292" y="-138.6" font-family="Times,serif" font-size="14.00">AppService</text>
</g>
<!-- AppService&#45;&gt;AppModule -->
<g id="edge3" class="edge">
<title>AppService&#45;&gt;AppModule</title>
<path fill="none" stroke="black" d="M331.9,-155.64C331.9,-155.64 331.9,-179.32 331.9,-179.32"/>
<polygon fill="black" stroke="black" points="328.4,-179.32 331.9,-189.32 335.4,-179.32 328.4,-179.32"/>
</g>
<!-- NameInsertedListener -->
<g id="node5" class="node">
<title>NameInsertedListener</title>
<ellipse fill="#fdb462" stroke="black" cx="121" cy="-142.8" rx="96.66" ry="18"/>
<text text-anchor="middle" x="121" y="-138.6" font-family="Times,serif" font-size="14.00">NameInsertedListener</text>
</g>
<!-- NameInsertedListener&#45;&gt;AppModule -->
<g id="edge4" class="edge">
<title>NameInsertedListener&#45;&gt;AppModule</title>
<path fill="none" stroke="black" d="M121,-160.91C121,-180.14 121,-207.8 121,-207.8 121,-207.8 305.08,-207.8 305.08,-207.8"/>
<polygon fill="black" stroke="black" points="305.08,-211.3 315.08,-207.8 305.08,-204.3 305.08,-211.3"/>
</g>
<!-- NamesService -->
<g id="node6" class="node">
<title>NamesService</title>
<ellipse fill="#fdb462" stroke="black" cx="394" cy="-66.8" rx="66.61" ry="18"/>
<text text-anchor="middle" x="394" y="-62.6" font-family="Times,serif" font-size="14.00">NamesService</text>
</g>
<!-- NamesService&#45;&gt;NamesModule -->
<g id="edge5" class="edge">
<title>NamesService&#45;&gt;NamesModule</title>
<path fill="none" stroke="black" d="M416.8,-84.05C416.8,-84.05 416.8,-114.56 416.8,-114.56"/>
<polygon fill="black" stroke="black" points="413.3,-114.56 416.8,-124.56 420.3,-114.56 413.3,-114.56"/>
</g>
<!-- UsersService -->
<g id="node7" class="node">
<title>UsersService</title>
<ellipse fill="#fdb462" stroke="black" cx="563" cy="-66.8" rx="61.95" ry="18"/>
<text text-anchor="middle" x="563" y="-62.6" font-family="Times,serif" font-size="14.00">UsersService</text>
</g>
<!-- UsersService&#45;&gt;UsersModule -->
<g id="edge6" class="edge">
<title>UsersService&#45;&gt;UsersModule</title>
<path fill="none" stroke="black" d="M540.87,-83.67C540.87,-83.67 540.87,-114.65 540.87,-114.65"/>
<polygon fill="black" stroke="black" points="537.37,-114.65 540.87,-124.65 544.37,-114.65 537.37,-114.65"/>
</g>
</g>
</svg>
