<?xml version="1.0" encoding="UTF-8" standalone="no"?>
<!DOCTYPE svg PUBLIC "-//W3C//DTD SVG 1.1//EN"
 "http://www.w3.org/Graphics/SVG/1.1/DTD/svg11.dtd">
<!-- Generated by graphviz version 2.47.3 (20210619.1520)
 -->
<!-- Title: dependencies Pages: 1 -->
<svg width="190pt" height="174pt"
 viewBox="0.00 0.00 190.00 173.80" xmlns="http://www.w3.org/2000/svg" xmlns:xlink="http://www.w3.org/1999/xlink">
<g id="graph0" class="graph" transform="scale(1 1) rotate(0) translate(4 169.8)">
<title>dependencies</title>
<polygon fill="white" stroke="transparent" points="-4,4 -4,-169.8 186,-169.8 186,4 -4,4"/>
<text text-anchor="middle" x="91" y="-8.2" font-family="sans-serif" font-size="14.00">dependencies</text>
<g id="clust1" class="cluster">
<title>cluster_NamesModule</title>
<polygon fill="none" stroke="black" stroke-dasharray="1,5" points="8,-32.8 8,-157.8 174,-157.8 174,-32.8 8,-32.8"/>
</g>
<g id="clust6" class="cluster">
<title>cluster_NamesModule_providers</title>
<polygon fill="none" stroke="black" points="16,-40.8 16,-92.8 166,-92.8 166,-40.8 16,-40.8"/>
</g>
<!-- NamesService -->
<g id="node1" class="node">
<title>NamesService</title>
<ellipse fill="#fdb462" stroke="black" cx="91" cy="-66.8" rx="66.61" ry="18"/>
<text text-anchor="middle" x="91" y="-62.6" font-family="Times,serif" font-size="14.00">NamesService</text>
</g>
<!-- NamesModule -->
<g id="node2" class="node">
<title>NamesModule</title>
<polygon fill="#8dd3c7" stroke="black" points="140.42,-149.8 137.42,-153.8 116.42,-153.8 113.42,-149.8 41.58,-149.8 41.58,-113.8 140.42,-113.8 140.42,-149.8"/>
<text text-anchor="middle" x="91" y="-127.6" font-family="Times,serif" font-size="14.00">NamesModule</text>
</g>
<!-- NamesService&#45;&gt;NamesModule -->
<g id="edge1" class="edge">
<title>NamesService&#45;&gt;NamesModule</title>
<path fill="none" stroke="black" d="M91,-84.91C91,-84.91 91,-103.79 91,-103.79"/>
<polygon fill="black" stroke="black" points="87.5,-103.79 91,-113.79 94.5,-103.79 87.5,-103.79"/>
</g>
</g>
</svg>
